<svg baseProfile="full" height="630" preserveAspectRatio="none" shape-rendering="geometricPrecision" version="1.1" viewBox="0,0,1200,630" width="1200" xmlns="http://www.w3.org/2000/svg" xmlns:ev="http://www.w3.org/2001/xml-events" xmlns:xlink="http://www.w3.org/1999/xlink"><title>Jigsaw puzzle piece clips</title><desc>Created with the piecemaker. Piece count: 112</desc><defs /><g><g><rect fill="white" height="630" width="1200" x="0" y="0" /></g></g><g><g><path d="M 0 0  L 85.714286 0  c 0.0,19.08441945132957 -4.285714285714286,38.026082037225756 5.4345652940468145,32.51358203722575&#10;c 17.902392813151828,-4.725 21.851830498012312,0 21.851830498012312,6.861417962774247&#10;c 0,6.549456854822338 -11.030508183542095,11.274456854822338 -17.060167133010438,6.549456854822338&#10;c -11.142857142857142,-4.725 -6.857142857142857,16.537499999999998 -10.226228659048687,32.82554314517766 c 0.0,22.198711465805975 -4.285714285714286,35.76033958908965 3.4284090269719845,30.247839589089647&#10;c 16.759471566844045,-4.725 18.752572586313896,0 18.752572586313896,9.127160410910353&#10;c 0,6.03689358958173 -7.877142124973847,10.76189358958173 -10.004702856343371,6.03689358958173&#10;c -11.142857142857142,-4.725 -6.857142857142857,16.537499999999998 -12.176278756942509,33.33810641041827 c 0.0,12.527225579558513 -4.285714285714286,36.400141802193424 13.852032388155877,30.887641802193425&#10;c 12.590418861229749,-4.725 12.523025139986451,0 12.523025139986451,8.487358197806575&#10;c 0,5.845435920644775 -7.5745757659404145,10.570435920644774 -12.963936416731903,5.845435920644775&#10;c -11.142857142857142,-4.725 -6.857142857142857,16.537499999999998 -13.411121111410425,33.529564079355225 c 0.0,20.809507305588042 -4.285714285714286,35.36898206952307 18.724404330463774,29.856482069523068&#10;c 3.626844704319647,-4.725 5.2557681009606725,0 5.2557681009606725,9.518517930476932&#10;c 0,8.576635136556334 -7.389206136537257,13.301635136556333 -25.129835607187502,8.576635136556334&#10;c -11.142857142857142,-4.725 -6.857142857142857,16.537499999999998 1.149663175763056,30.798364863443666 c 0.0,12.523481749752907 -4.285714285714286,35.89052805512125 -1.0223343970923027,30.37802805512125&#10;c 8.94878896779084,-4.725 28.960039081953063,0 28.960039081953063,8.996971944878752&#10;c 0,11.24484403218029 -13.467397780266301,15.969844032180289 -23.416998124702637,11.24484403218029&#10;c -11.142857142857142,-4.725 -6.857142857142857,16.537499999999998 -4.520706560158125,28.13015596781971 c 0.0,10.529757512057056 -4.285714285714286,36.569434203415774 4.154370681081487,31.05693420341577&#10;c 4.948799739593358,-4.725 19.781969879390953,0 19.781969879390953,8.318065796584229&#10;c 0,11.576412531599765 -11.273878444785568,16.301412531599766 -23.478576667142715,11.576412531599765&#10;c -11.142857142857142,-4.725 -6.857142857142857,16.537499999999998 -0.45776389332972656,27.798587468400235 c 0.0,13.465647980735357 -4.285714285714286,37.83500527895001 1.3702546728503693,32.322505278950004&#10;c 21.470600158831733,-4.725 22.363827421753907,0 22.363827421753907,7.052494721049996&#10;c 0,8.552081519230349 -3.4059121591146133,13.277081519230348 -7.863151333850903,8.552081519230349&#10;c -11.142857142857142,-4.725 -6.857142857142857,16.537499999999998 -15.870930760753373,30.82291848076965 c -0.0,21.67181260549295 4.285714285714286,32.583479947957834 -8.803331957097097,27.070979947957834&#10;c -12.598358288883416,-4.725 -16.782345703953492,0 -16.782345703953492,12.304020052042166&#10;c 0,10.34657415542032 16.34745711426911,15.07157415542032 19.91717291973757,10.34657415542032&#10;c 11.142857142857142,-4.725 6.857142857142857,16.537499999999998 5.6685047413130185,29.02842584457968 L 0 630 " fill="none" stroke="black" stroke-width="1.0" style="vector-effect:non-scaling-stroke;" /></g><g><path d="M 0 0  L 171.428571 0  c -0.0,8.234533490285743 4.285714285714286,35.62423844804113 -14.566280395453555,30.111738448041134&#10;c -3.375072253182584,-4.725 -9.291560060907214,0 -9.291560060907214,9.263261551958866&#10;c 0,11.81753855892098 10.282356720321893,16.54253855892098 14.384099978997776,11.81753855892098&#10;c 11.142857142857142,-4.725 6.857142857142857,16.537499999999998 9.473740477362993,27.55746144107902 c -0.0,17.16774730724613 4.285714285714286,32.70480818369296 -14.718881331210735,27.19230818369296&#10;c -6.285769429157171,-4.725 -12.125639869234195,0 -12.125639869234195,12.182691816307042&#10;c 0,10.294584280641686 13.300603774491012,15.019584280641686 22.331550083738648,10.294584280641686&#10;c 11.142857142857142,-4.725 6.857142857142857,16.537499999999998 4.512971116706282,29.080415719358314 c -0.0,17.95953218445844 4.285714285714286,34.07968758128237 -13.470976001397313,28.56718758128237&#10;c -6.775582679412125,-4.725 -8.352427125483205,0 -8.352427125483205,10.807812418717631&#10;c 0,11.98164595850389 12.426094188997856,16.70664595850389 14.321648421277118,11.98164595850389&#10;c 11.142857142857142,-4.725 6.857142857142857,16.537499999999998 7.5017547056034,27.39335404149611 c -0.0,8.732615990329363 4.285714285714286,38.39184069174732 -9.474490841288661,32.879340691747316&#10;c -10.973869854124192,-4.725 -17.20222911892781,0 -17.20222911892781,6.495659308252684&#10;c 0,12.157489754646562 12.445187940992026,16.882489754646564 20.807205749277973,12.157489754646562&#10;c 11.142857142857142,-4.725 6.857142857142857,16.537499999999998 5.869514210938501,27.217510245353438 c -0.0,13.248342072341332 4.285714285714286,38.093708751285114 -13.532240735215609,32.58120875128511&#10;c -3.220729072790242,-4.725 -14.864400987962561,0 -14.864400987962561,6.793791248714889&#10;c 0,11.090310672088556 22.513751677941183,15.815310672088556 30.000090055248332,11.090310672088556&#10;c 11.142857142857142,-4.725 6.857142857142857,16.537499999999998 -1.6034483320701618,28.284689327911444 c 0.0,17.303399377543915 -4.285714285714286,33.566488324714115 14.413106770817283,28.053988324714116&#10;c 7.145702652611699,-4.725 14.241783514206666,0 14.241783514206666,11.321011675285884&#10;c 0,5.878770860346883 -13.627545610534755,10.603770860346883 -27.993468715942225,5.878770860346883&#10;c -11.142857142857142,-4.725 -6.857142857142857,16.537499999999998 -0.6614215690817247,33.49622913965312 c -0.0,16.221950188005074 4.285714285714286,35.82165008547941 -16.173796743148465,30.309150085479413&#10;c -4.964477819821038,-4.725 -6.926193020974765,0 -6.926193020974765,9.065849914520587&#10;c 0,5.975441899534168 16.125216908367232,10.700441899534168 24.802504859796777,5.975441899534168&#10;c 11.142857142857142,-4.725 6.857142857142857,16.537499999999998 -1.7025150956735473,33.39955810046583 c -0.0,17.313871863847083 4.285714285714286,34.53164351528504 -3.5800997875393725,29.01914351528504&#10;c -16.016538500791047,-4.725 -17.75429126268101,0 -17.75429126268101,10.355856484714959&#10;c 0,11.288644681229378 19.21602148460452,16.01364468122938 22.171774185945466,11.288644681229378&#10;c 11.142857142857142,-4.725 6.857142857142857,16.537499999999998 -0.8373831357250836,28.08635531877062 L 0 630 " fill="none" stroke="black" stroke-width="1.0" style="vector-effect:non-scaling-stroke;" /></g><g><path d="M 0 0  L 257.142857 0  c -0.0,6.621583341101557 4.285714285714286,33.71934211436 -7.252287751484751,28.206842114360004&#10;c -8.287646048380871,-4.725 -14.207630225775134,0 -14.207630225775134,11.168157885639996&#10;c 0,10.455424933065544 5.949422317011813,15.180424933065543 14.794924560622047,10.455424933065544&#10;c 11.142857142857142,-4.725 6.857142857142857,16.537499999999998 6.664993416637838,28.919575066934456 c -0.0,18.87256426832445 4.285714285714286,34.00206004034186 -15.597913367552675,28.489560040341857&#10;c -10.772883391758173,-4.725 -12.439625667888333,0 -12.439625667888333,10.885439959658143&#10;c 0,10.944613150773115 13.139431976953658,15.669613150773115 13.660076388659451,10.944613150773115&#10;c 11.142857142857142,-4.725 6.857142857142857,16.537499999999998 14.377462646781556,28.430386849226885 c -0.0,19.341660482176437 4.285714285714286,37.243845494487 -17.185755446386114,31.731345494486998&#10;c -1.3221153350298622,-4.725 -5.45446535604275,0 -5.45446535604275,7.643654505513002&#10;c 0,6.522751943761932 7.086714752333117,11.247751943761932 8.973826233231254,6.522751943761932&#10;c 11.142857142857142,-4.725 6.857142857142857,16.537499999999998 13.66639456919761,32.85224805623807 c 0.0,13.919660457798106 -4.285714285714286,38.65349908413099 16.292164543381293,33.14099908413099&#10;c 4.138289778501362,-4.725 5.400274260867047,0 5.400274260867047,6.234000915869011&#10;c 0,8.422404125129134 -8.285105364153004,13.147404125129134 -22.37029995797686,8.422404125129134&#10;c -11.142857142857142,-4.725 -6.857142857142857,16.537499999999998 0.6778611537285215,30.952595874870866 c 0.0,5.493198743713499 -4.285714285714286,38.9699718110716 17.315591330172733,33.4574718110716&#10;c 2.1681227960359912,-4.725 7.109703534395216,0 7.109703534395216,5.917528188928401&#10;c 0,10.674961507913679 -17.38133862980041,15.399961507913678 -18.640095548317664,10.674961507913679&#10;c -11.142857142857142,-4.725 -6.857142857142857,16.537499999999998 -5.785199316250285,28.70003849208632 c 0.0,5.643456845233698 -4.285714285714286,37.975756956572674 6.536063907068127,32.46325695657267&#10;c 14.778468466343694,-4.725 17.540256457788598,0 17.540256457788598,6.911743043427329&#10;c 0,5.942027198667219 -7.134599499540483,10.667027198667219 -19.292573354295858,5.942027198667219&#10;c -11.142857142857142,-4.725 -6.857142857142857,16.537499999999998 -4.783747010560866,33.43297280133278 c 0.0,21.01294605593732 -4.285714285714286,39.0000630780049 2.203754550958189,33.4875630780049&#10;c 16.04754534307622,-4.725 26.637144302920667,0 26.637144302920667,5.8874369219951035&#10;c 0,12.36697889557567 -5.2943107407327235,17.09197889557567 -15.633945821902454,12.36697889557567&#10;c -11.142857142857142,-4.725 -6.857142857142857,16.537499999999998 -13.2069530319764,27.00802110442433 c -0.0,21.234047782000342 4.285714285714286,32.44076049265856 -1.101253044616978,26.928260492658563&#10;c -21.997489023681645,-4.725 -25.14733041644243,0 -25.14733041644243,12.446739507341437&#10;c 0,10.185172570287854 12.950216147124317,14.910172570287854 13.967520339410646,10.185172570287854&#10;c 11.142857142857142,-4.725 6.857142857142857,16.537499999999998 12.281063121648762,29.189827429712146 L 0 630 " fill="none" stroke="black" stroke-width="1.0" style="vector-effect:non-scaling-stroke;" /></g><g><path d="M 0 0  L 342.857143 0  c 0.0,17.387236728325632 -4.285714285714286,35.501244940428414 17.289106100380213,29.98874494042841&#10;c 11.206810892454094,-4.725 11.737457349581902,0 11.737457349581902,9.386255059571589&#10;c 0,7.479348226884298 -22.65618035864817,12.204348226884298 -26.548317364094107,7.479348226884298&#10;c -11.142857142857142,-4.725 -6.857142857142857,16.537499999999998 -2.478246085868008,31.895651773115702 c 0.0,7.225122460371353 -4.285714285714286,37.046287017198964 16.64854299297891,31.53378701719896&#10;c 1.4892432357342789,-4.725 4.23439913866353,0 4.23439913866353,7.841212982801039&#10;c 0,6.9805848956388985 -14.841595041191061,11.705584895638898 -15.57830451634759,6.9805848956388985&#10;c -11.142857142857142,-4.725 -6.857142857142857,16.537499999999998 -5.304637615294851,32.3944151043611 c 0.0,5.068609326720295 -4.285714285714286,36.84294540736229 15.7031670020873,31.330445407362294&#10;c 3.243288341522188,-4.725 6.494779470525222,0 6.494779470525222,8.044554592637706&#10;c 0,6.539138250115208 -8.209270437267271,11.264138250115208 -13.517529621440316,6.539138250115208&#10;c -11.142857142857142,-4.725 -6.857142857142857,16.537499999999998 -8.680416851172206,32.83586174988479 c 0.0,9.073942336205207 -4.285714285714286,36.61409553547495 16.15293810724706,31.101595535474953&#10;c 2.356917951024665,-4.725 5.2145416174619506,0 5.2145416174619506,8.273404464525047&#10;c 0,11.43647018728231 -14.804211133424298,16.161470187282312 -18.303986153569056,11.43647018728231&#10;c -11.142857142857142,-4.725 -6.857142857142857,16.537499999999998 -3.0634935711399542,27.93852981271769 c 0.0,9.096712993138407 -4.285714285714286,33.65760460775794 9.409170765969256,28.14510460775794&#10;c 13.271644283672291,-4.725 13.502948421499605,0 13.502948421499605,11.22989539224206&#10;c 0,11.580679759908634 -2.061051142183518,16.305679759908635 -5.857614049338025,11.580679759908634&#10;c -11.142857142857142,-4.725 -6.857142857142857,16.537499999999998 -17.054505138130835,27.794320240091366 c 0.0,17.980873081253026 -4.285714285714286,35.60047987522174 16.021171643115146,30.087979875221738&#10;c 4.6202884473193135,-4.725 7.737282327178992,0 7.737282327178992,9.287020124778262&#10;c 0,12.252571403729426 -6.258803935092326,16.977571403729428 -8.753154035553806,12.252571403729426&#10;c -11.142857142857142,-4.725 -6.857142857142857,16.537499999999998 -15.005299934740332,27.122428596270574 c 0.0,14.015666523991525 -4.285714285714286,34.480260729478026 10.91831090972604,28.967760729478023&#10;c 4.455273626014169,-4.725 13.976459604752195,0 13.976459604752195,10.407239270521977&#10;c 0,11.528632172831223 -3.9547098194656694,16.253632172831225 -9.148598585115995,11.528632172831223&#10;c -11.142857142857142,-4.725 -6.857142857142857,16.537499999999998 -15.74617192936224,27.846367827168777 c 0.0,7.904897035161678 -4.285714285714286,36.729068794343945 11.956595111238562,31.216568794343942&#10;c 7.784041814155026,-4.725 9.078513680211612,0 9.078513680211612,8.158431205656058&#10;c 0,8.439866368790895 -4.132704991126447,13.164866368790895 -16.689360666645104,8.439866368790895&#10;c -11.142857142857142,-4.725 -6.857142857142857,16.537499999999998 -4.34574812480507,30.935133631209105 L 0 630 " fill="none" stroke="black" stroke-width="1.0" style="vector-effect:non-scaling-stroke;" /></g><g><path d="M 0 0  L 428.571429 0  c -0.0,13.476096988929157 4.285714285714286,37.477885576082514 -9.020651932840249,31.965385576082515&#10;c -6.3254325780780025,-4.725 -16.99968218506848,0 -16.99968218506848,7.4096144239174855&#10;c 0,5.865660123790363 9.787139455311257,10.590660123790363 20.984838417248973,5.865660123790363&#10;c 11.142857142857142,-4.725 6.857142857142857,16.537499999999998 5.035495700659755,33.50933987620964 c -0.0,20.15864114468367 4.285714285714286,35.261362977596214 -14.025651586176942,29.748862977596215&#10;c -5.356707305334836,-4.725 -7.573165473208384,0 -7.573165473208384,9.626137022403785&#10;c 0,8.286468548329509 5.425025394642053,13.011468548329509 8.562866537409825,8.286468548329509&#10;c 11.142857142857142,-4.725 6.857142857142857,16.537499999999998 13.0359505219755,31.08853145167049 c 0.0,10.173601235590322 -4.285714285714286,34.530427182361535 8.061757268788755,29.017927182361532&#10;c 12.32762472219236,-4.725 14.033404276410165,0 14.033404276410165,10.357072817638468&#10;c 0,10.418001717888139 -6.59779793184982,15.143001717888138 -15.809345097170903,10.418001717888139&#10;c -11.142857142857142,-4.725 -6.857142857142857,16.537499999999998 -6.285816448028017,28.95699828211186 c 0.0,7.002214422767606 -4.285714285714286,32.34164414285458 2.855836500148654,26.829144142854577&#10;c 5.537439222057793,-4.725 18.80065065754405,0 18.80065065754405,12.545855857145423&#10;c 0,10.08335855349582 -7.404080901655201,14.80835855349582 -18.598421327232614,10.08335855349582&#10;c -11.142857142857142,-4.725 -6.857142857142857,16.537499999999998 -3.058065830460091,29.29164144650418 c 0.0,8.061498994100896 -4.285714285714286,37.73823529256407 9.254004413588204,32.22573529256407&#10;c 17.924045342929986,-4.725 19.62354133422827,0 19.62354133422827,7.149264707435933&#10;c 0,12.222866075506225 -13.551767710007454,16.947866075506226 -29.01931654409894,12.222866075506225&#10;c -11.142857142857142,-4.725 -6.857142857142857,16.537499999999998 0.14177079628246148,27.152133924493775 c 0.0,10.132125283372087 -4.285714285714286,33.03325740761459 9.803581268888466,27.520757407614592&#10;c 5.133301762992182,-4.725 13.621442836974426,0 13.621442836974426,11.854242592385408&#10;c 0,9.667255593426233 -9.955345319602905,14.392255593426233 -24.53274581723657,9.667255593426233&#10;c -11.142857142857142,-4.725 -6.857142857142857,16.537499999999998 1.107721711373678,29.707744406573767 c -0.0,14.032815664907059 4.285714285714286,39.34848596315084 -8.681167919819966,33.83598596315084&#10;c -11.972815270300478,-4.725 -12.861441550447687,0 -12.861441550447687,5.53901403684916&#10;c 0,9.656542082230345 5.778091890892841,14.381542082230345 13.57501659067211,9.656542082230345&#10;c 11.142857142857142,-4.725 6.857142857142857,16.537499999999998 7.967592879595543,29.718457917769655 c 0.0,16.554478150741 -4.285714285714286,35.716387683267484 4.785551016351569,30.203887683267485&#10;c 20.779452960806218,-4.725 21.701087225745262,0 21.701087225745262,9.171112316732515&#10;c 0,11.798559102084283 -19.199516361573348,16.523559102084285 -27.545834179971205,11.798559102084283&#10;c -11.142857142857142,-4.725 -6.857142857142857,16.537499999999998 1.0591959378743745,27.576440897915717 L 0 630 " fill="none" stroke="black" stroke-width="1.0" style="vector-effect:non-scaling-stroke;" /></g><g><path d="M 0 0  L 514.285714 0  c -0.0,11.735490592843892 4.285714285714286,36.12035955599249 -11.157006275578656,30.60785955599249&#10;c -6.9711853831809965,-4.725 -12.021510976635053,0 -12.021510976635053,8.76714044400751&#10;c 0,9.127534409798294 8.682203804062794,13.852534409798293 11.928088571861206,9.127534409798294&#10;c 11.142857142857142,-4.725 6.857142857142857,16.537499999999998 11.250428680352503,30.247465590201706 c 0.0,5.014233156286461 -4.285714285714286,38.918164463841364 15.742420206614382,33.40566446384136&#10;c 12.42376415235033,-4.725 12.795921445097,0 12.795921445097,5.969335536158638&#10;c 0,7.981970516464834 -11.274939651524996,12.706970516464834 -25.57194358394404,7.981970516464834&#10;c -11.142857142857142,-4.725 -6.857142857142857,16.537499999999998 -2.96639806776734,31.393029483535166 c -0.0,8.89853805731868 4.285714285714286,39.21482705885867 0.6247932904544726,33.702327058858664&#10;c -9.131088610739718,-4.725 -24.678513246717,0 -24.678513246717,5.672672941141336&#10;c 0,6.251926197236131 3.6001315632930457,10.97692619723613 9.990099301366849,6.251926197236131&#10;c 11.142857142857142,-4.725 6.857142857142857,16.537499999999998 14.063620654895677,33.12307380276387 c 0.0,5.071692986577219 -4.285714285714286,36.768039844511186 9.158933080559175,31.255539844511187&#10;c 2.9862559071084394,-4.725 13.640437089557677,0 13.640437089557677,8.119460155488813&#10;c 0,8.32011304531811 -15.18422133736551,13.045113045318109 -21.53285696923762,8.32011304531811&#10;c -11.142857142857142,-4.725 -6.857142857142857,16.537499999999998 -1.2665132008792312,31.05488695468189 c 0.0,22.59742476074512 -4.285714285714286,32.84921281900307 16.536887003372108,27.336712819003072&#10;c 6.426957080986352,-4.725 7.927550532710619,0 7.927550532710619,12.038287180996928&#10;c 0,10.382747030197791 -4.3565788837101085,15.10774703019779 -15.086329574639414,10.382747030197791&#10;c -11.142857142857142,-4.725 -6.857142857142857,16.537499999999998 -9.378107961443312,28.99225296980221 c -0.0,18.993271763335912 4.285714285714286,36.03030887174378 -1.2055449669903615,30.517808871743778&#10;c -13.229947798998952,-4.725 -21.836434670255525,0 -21.836434670255525,8.857191128256222&#10;c 0,8.75943151613231 7.944655154105374,13.48443151613231 8.168430827956923,8.75943151613231&#10;c 11.142857142857142,-4.725 6.857142857142857,16.537499999999998 14.873548809288964,30.61556848386769 c 0.0,9.15367294523146 -4.285714285714286,37.63113406303979 18.523014049091742,32.118634063039785&#10;c 3.6056943360251874,-4.725 6.993642048725096,0 6.993642048725096,7.256365936960215&#10;c 0,6.649002084384321 -17.870145435971033,11.37400208438432 -20.414636323448384,6.649002084384321&#10;c -11.142857142857142,-4.725 -6.857142857142857,16.537499999999998 -5.102019774368454,32.72599791561568 c 0.0,8.078185558086194 -4.285714285714286,35.223985929390665 1.9967619353491721,29.711485929390665&#10;c 4.683277043182994,-4.725 21.32637449104902,0 21.32637449104902,9.663514070609335&#10;c 0,11.44295515146328 -5.779275381773075,16.167955151463282 -21.761066227435634,11.44295515146328&#10;c -11.142857142857142,-4.725 -6.857142857142857,16.537499999999998 -1.5620701989625587,27.93204484853672 L 0 630 " fill="none" stroke="black" stroke-width="1.0" style="vector-effect:non-scaling-stroke;" /></g><g><path d="M 0 0  L 600.000000 0  c -0.0,9.056331846125442 4.285714285714286,37.985150863715475 -0.10915274073011182,32.47265086371547&#10;c -10.737291381641546,-4.725 -26.0900572062897,0 -26.0900572062897,6.902349136284528&#10;c 0,8.937876446677734 3.359978199263612,13.662876446677734 15.850298736821001,8.937876446677734&#10;c 11.142857142857142,-4.725 6.857142857142857,16.537499999999998 10.348911210198809,30.437123553322266 c -0.0,16.719100323496903 4.285714285714286,38.90384780769326 -0.43171714135026856,33.39134780769326&#10;c -10.350803942901194,-4.725 -27.628605475975295,0 -27.628605475975295,5.983652192306742&#10;c 0,8.07184245388634 4.862899423342808,12.79684245388634 10.013129617976798,8.07184245388634&#10;c 11.142857142857142,-4.725 6.857142857142857,16.537499999999998 18.047192999348766,31.30315754611366 c -0.0,8.591841892700918 4.285714285714286,34.67581177565795 0.8473204407431314,29.163311775657945&#10;c -16.476887757645198,-4.725 -22.31192513411966,0 -22.31192513411966,10.211688224342055&#10;c 0,9.801116921792733 3.2653170377731016,14.526116921792733 12.934842148148851,9.801116921792733&#10;c 11.142857142857142,-4.725 6.857142857142857,16.537499999999998 8.529762545227678,29.573883078207267 c 0.0,17.873256914639946 -4.285714285714286,39.36302830773218 5.798729035456596,33.850528307732176&#10;c 14.852900018352882,-4.725 16.926579722711246,0 16.926579722711246,5.524471692267824&#10;c 0,5.903184475306432 -5.656301484478961,10.628184475306432 -13.956497665822136,5.903184475306432&#10;c -11.142857142857142,-4.725 -6.857142857142857,16.537499999999998 -8.768811092345706,33.47181552469357 c 0.0,12.386745276567522 -4.285714285714286,35.8033562050569 6.1873204014341,30.2908562050569&#10;c 3.9767389317596895,-4.725 15.40850519043427,0 15.40850519043427,9.084143794943099&#10;c 0,5.733893260657297 -2.1998055994650665,10.458893260657296 -3.982985295630023,5.733893260657297&#10;c -11.142857142857142,-4.725 -6.857142857142857,16.537499999999998 -17.612840296238346,33.6411067393427 c -0.0,16.3932292204127 4.285714285714286,37.519688251498856 -1.1396955647009914,32.00718825149885&#10;c -25.023986199744243,-4.725 -25.23815497367123,0 -25.23815497367123,7.367811748501147&#10;c 0,8.17493625184379 14.63172274970293,12.899936251843789 21.817211585788645,8.17493625184379&#10;c 11.142857142857142,-4.725 6.857142857142857,16.537499999999998 4.560638952583577,31.20006374815621 c -0.0,8.21583329260001 4.285714285714286,35.13336015733342 -7.494065739834109,29.62086015733342&#10;c -10.592304899843988,-4.725 -21.063531223050273,0 -21.063531223050273,9.754139842666579&#10;c 0,6.020399696306356 17.06991509741588,10.745399696306356 17.26060427243032,6.020399696306356&#10;c 11.142857142857142,-4.725 6.857142857142857,16.537499999999998 11.296992690454061,33.354600303693644 c 0.0,16.489441898342648 -4.285714285714286,37.637940219821196 17.073395911401214,32.12544021982119&#10;c 4.113740089920612,-4.725 6.465071682428029,0 6.465071682428029,7.2495597801788065&#10;c 0,7.45467813039874 -1.561441495651504,12.17967813039874 -5.530324508589917,7.45467813039874&#10;c -11.142857142857142,-4.725 -6.857142857142857,16.537499999999998 -18.008143085239325,31.92032186960126 L 0 630 " fill="none" stroke="black" stroke-width="1.0" style="vector-effect:non-scaling-stroke;" /></g><g><path d="M 0 0  L 685.714286 0  c 0.0,6.230000347059646 -4.285714285714286,34.36919027807471 14.062726049212014,28.85669027807471&#10;c 4.833617939878159,-4.725 7.490874214982089,0 7.490874214982089,10.518309721925291&#10;c 0,6.895608949935195 -1.232508334445792,11.620608949935194 -3.6333436330262536,6.895608949935195&#10;c -11.142857142857142,-4.725 -6.857142857142857,16.537499999999998 -17.92025663116785,32.479391050064805 c 0.0,20.39803368221869 -4.285714285714286,38.61685914559078 6.057312361868157,33.10435914559078&#10;c 5.103718890529619,-4.725 19.69249023532554,0 19.69249023532554,6.270640854409223&#10;c 0,6.887991880087654 -8.949801949406856,11.612991880087653 -13.287298196375318,6.887991880087654&#10;c -11.142857142857142,-4.725 -6.857142857142857,16.537499999999998 -12.462504400818379,32.487008119912346 c -0.0,11.004560615641465 4.285714285714286,34.292061229196804 -18.04523483034785,28.7795612291968&#10;c -6.077164774125229,-4.725 -7.0137832942371965,0 -7.0137832942371965,10.595438770803199&#10;c 0,11.290804997132035 7.871480590672553,16.015804997132037 8.443961919756422,11.290804997132035&#10;c 11.142857142857142,-4.725 6.857142857142857,16.537499999999998 16.615056204828626,28.084195002867965 c 0.0,21.952468977822313 -4.285714285714286,35.39307785026978 8.747056412526753,29.880577850269784&#10;c 7.3080142878517265,-4.725 15.614523036788235,0 15.614523036788235,9.494422149730216&#10;c 0,8.073308992682627 -10.563156577051808,12.798308992682626 -23.9692126422123,8.073308992682627&#10;c -11.142857142857142,-4.725 -6.857142857142857,16.537499999999998 -0.392366807102686,31.301691007317373 c -0.0,20.20931682566402 4.285714285714286,33.63763378250316 -14.69086372483417,28.125133782503156&#10;c -5.606414270352936,-4.725 -5.992928322462024,0 -5.992928322462024,11.249866217496844&#10;c 0,9.83523227152262 3.6267062413326223,14.56023227152262 4.217350726964533,9.83523227152262&#10;c 11.142857142857142,-4.725 6.857142857142857,16.537499999999998 16.46644132033166,29.53976772847738 c 0.0,13.429967677473964 -4.285714285714286,37.648584478949765 17.70887276453818,32.13608447894976&#10;c 1.1862565412166803,-4.725 3.7968966510852873,0 3.7968966510852873,7.238915521050238&#10;c 0,8.784101840087217 -2.9040367226894275,13.509101840087217 -6.512745426095252,8.784101840087217&#10;c -11.142857142857142,-4.725 -6.857142857142857,16.537499999999998 -14.993023989528217,30.590898159912783 c 0.0,15.236630551730915 -4.285714285714286,34.41852774903217 17.63228898840167,28.90602774903217&#10;c 7.694252750221929,-4.725 7.7455010235666215,0 7.7455010235666215,10.46897225096783&#10;c 0,8.221668101474357 -11.779621167042707,12.946668101474357 -22.022344956891274,8.221668101474357&#10;c -11.142857142857142,-4.725 -6.857142857142857,16.537499999999998 -3.3554450550770163,31.153331898525643 c 0.0,10.709542071568473 -4.285714285714286,38.709593043652035 9.223013075909327,33.19709304365203&#10;c 14.594969215763356,-4.725 15.56250773374902,0 15.56250773374902,6.177906956347968&#10;c 0,9.814184175871858 -10.653971115925177,14.539184175871858 -14.760513042271642,9.814184175871858&#10;c -11.142857142857142,-4.725 -6.857142857142857,16.537499999999998 -10.025007767386706,29.56081582412814 L 0 630 " fill="none" stroke="black" stroke-width="1.0" style="vector-effect:non-scaling-stroke;" /></g><g><path d="M 0 0  L 771.428571 0  c 0.0,6.299079218045044 -4.285714285714286,38.68257141328263 6.187124870220755,33.17007141328263&#10;c 10.13618275731149,-4.725 19.21635177079292,0 19.21635177079292,6.204928586717372&#10;c 0,6.908708529623169 -22.25093166003055,11.633708529623169 -24.29219975746603,6.908708529623169&#10;c -11.142857142857142,-4.725 -6.857142857142857,16.537499999999998 -1.1112768835476459,32.46629147037683 c -0.0,10.982072748668928 4.285714285714286,36.27526999969494 -15.758422860883753,30.76276999969494&#10;c -3.4837195037309567,-4.725 -5.652559572001623,0 -5.652559572001623,8.612230000305061&#10;c 0,6.922920145542307 1.2484723480375606,11.647920145542306 4.72161028739918,6.922920145542307&#10;c 11.142857142857142,-4.725 6.857142857142857,16.537499999999998 16.689372145486196,32.45207985445769 c -0.0,7.739964919463342 4.285714285714286,37.948889023705895 -0.20570836907335607,32.43638902370589&#10;c -6.944355190254801,-4.725 -26.968089059555385,0 -26.968089059555385,6.9386109762941075&#10;c 0,10.117368452855906 17.96127526191596,14.842368452855906 20.542607636649382,10.117368452855906&#10;c 11.142857142857142,-4.725 6.857142857142857,16.537499999999998 6.631189791979359,29.257631547144094 c -0.0,6.7180886794623405 4.285714285714286,37.78033388810924 -17.821705924218687,32.26783388810924&#10;c -4.337866900406097,-4.725 -4.6873470081989765,0 -4.6873470081989765,7.107166111890763&#10;c 0,9.655444882096916 16.66354561945126,14.380444882096915 18.728003209636817,9.655444882096916&#10;c 11.142857142857142,-4.725 6.857142857142857,16.537499999999998 3.781049722780846,29.719555117903084 c -0.0,7.955216096297526 4.285714285714286,32.31904833409811 1.01510487642263,26.806548334098114&#10;c -10.128765268901637,-4.725 -27.35258208965358,0 -27.35258208965358,12.568451665901886&#10;c 0,8.972613157679938 4.271347103205002,13.697613157679937 13.805853649612233,8.972613157679938&#10;c 11.142857142857142,-4.725 6.857142857142857,16.537499999999998 12.531623563618718,30.402386842320062 c 0.0,15.261114322297782 -4.285714285714286,32.31918967041528 18.756991187539192,26.806689670415278&#10;c 1.7417234823872463,-4.725 5.873307131408616,0 5.873307131408616,12.568310329584722&#10;c 0,9.580295693494747 -13.055045512110153,14.305295693494747 -24.164363001132816,9.580295693494747&#10;c -11.142857142857142,-4.725 -6.857142857142857,16.537499999999998 -0.4659353178149921,29.794704306505253 c -0.0,14.908920227155956 4.285714285714286,34.49758415474356 -8.01988608763839,28.985084154743564&#10;c -4.164544945637784,-4.725 -19.412895587213406,0 -19.412895587213406,10.389915845256436&#10;c 0,7.4129047040527425 19.180506967365925,12.137904704052742 23.958416557179856,7.4129047040527425&#10;c 11.142857142857142,-4.725 6.857142857142857,16.537499999999998 3.4743651176719403,31.962095295947258 c -0.0,19.025993871841763 4.285714285714286,33.96400416475869 0.4765391472044495,28.45150416475869&#10;c -13.766078605837007,-4.725 -23.590779961979866,0 -23.590779961979866,10.923495835241312&#10;c 0,11.94014039874596 21.872239024300185,16.66514039874596 24.096427706251223,11.94014039874596&#10;c 11.142857142857142,-4.725 6.857142857142857,16.537499999999998 -0.9821868914758056,27.43485960125404 L 0 630 " fill="none" stroke="black" stroke-width="1.0" style="vector-effect:non-scaling-stroke;" /></g><g><path d="M 0 0  L 857.142857 0  c 0.0,12.967567815379589 -4.285714285714286,33.04653467836196 10.755159590235914,27.534034678361955&#10;c 11.279541148312958,-4.725 17.35118679456901,0 17.35118679456901,11.840965321638045&#10;c 0,12.246800865513109 -19.96017028450065,16.97180086551311 -24.94397003201,12.246800865513109&#10;c -11.142857142857142,-4.725 -6.857142857142857,16.537499999999998 -3.1623763527949222,27.12819913448689 c 0.0,21.027294033950206 -4.285714285714286,37.323138893897216 6.661372300367585,31.810638893897213&#10;c 7.495485013728029,-4.725 19.045194801642225,0 19.045194801642225,7.564361106102787&#10;c 0,8.422829485581609 -4.834932827889028,13.147829485581608 -20.214240223554008,8.422829485581609&#10;c -11.142857142857142,-4.725 -6.857142857142857,16.537499999999998 -5.492326878455803,30.95217051441839 c 0.0,8.768897957579755 -4.285714285714286,32.673347540135715 11.000572414430563,27.160847540135713&#10;c 4.3514822724732545,-4.725 10.317201039772042,0 10.317201039772042,12.214152459864287&#10;c 0,10.916462417892639 -18.384390330567363,15.641462417892638 -18.76521380932875,10.916462417892639&#10;c -11.142857142857142,-4.725 -6.857142857142857,16.537499999999998 -2.552559644873856,28.45853758210736 c 0.0,4.35017424513966 -4.285714285714286,35.579110154293396 14.904999491263153,30.066610154293393&#10;c 7.031775738637862,-4.725 7.590595147511058,0 7.590595147511058,9.308389845706607&#10;c 0,11.536202629489694 -2.863714165192298,16.261202629489695 -11.185909672378916,11.536202629489694&#10;c -11.142857142857142,-4.725 -6.857142857142857,16.537499999999998 -11.309684966395295,27.838797370510306 c 0.0,18.909428016183696 -4.285714285714286,32.884061953706365 15.341353330011502,27.37156195370636&#10;c 1.5533004839324644,-4.725 6.201333199090941,0 6.201333199090941,12.003438046293638&#10;c 0,9.38643571832953 -7.769622128942486,14.11143571832953 -13.798506787850794,9.38643571832953&#10;c -11.142857142857142,-4.725 -6.857142857142857,16.537499999999998 -7.744179741251649,29.98856428167047 c 0.0,15.611903666190559 -4.285714285714286,34.38833192280302 17.6293993567342,28.875831922803016&#10;c 3.6913522988745933,-4.725 6.356139240031549,0 6.356139240031549,10.499168077196984&#10;c 0,5.853948881978525 -11.387664882433928,10.578948881978524 -13.793278114775829,5.853948881978525&#10;c -11.142857142857142,-4.725 -6.857142857142857,16.537499999999998 -10.192260481989921,33.521051118021475 c -0.0,5.139018283344028 4.285714285714286,34.278715978595805 -3.9502992850583682,28.766215978595806&#10;c -18.134471213853345,-4.725 -22.864686390769897,0 -22.864686390769897,10.608784021404194&#10;c 0,9.858941333680448 5.0278418208092885,14.583941333680448 12.539048747872506,9.858941333680448&#10;c 11.142857142857142,-4.725 6.857142857142857,16.537499999999998 14.275936927955758,29.51605866631955 c -0.0,22.737917834357198 4.285714285714286,33.28315761943216 -18.492399552970596,27.77065761943216&#10;c -1.1775968102600218,-4.725 -3.3421887421659022,0 -3.3421887421659022,11.60434238056784&#10;c 0,7.45074119751645 21.89642793450396,12.17574119751645 22.42210944008878,7.45074119751645&#10;c 11.142857142857142,-4.725 6.857142857142857,16.537499999999998 -0.5875211449522801,31.92425880248355 L 0 630 " fill="none" stroke="black" stroke-width="1.0" style="vector-effect:non-scaling-stroke;" /></g><g><path d="M 0 0  L 942.857143 0  c -0.0,9.784921634405883 4.285714285714286,37.8507074417407 1.0972787119132112,32.3382074417407&#10;c -6.033166015071277,-4.725 -23.99427737914214,0 -23.99427737914214,7.0367925582593&#10;c 0,6.9687896588628035 9.865269274101594,11.693789658862803 21.701272491617054,6.9687896588628035&#10;c 11.142857142857142,-4.725 6.857142857142857,16.537499999999998 1.195726175611874,32.4062103411372 c 0.0,20.867055592095834 -4.285714285714286,32.47280194215917 16.890670911994604,26.960301942159173&#10;c 3.232935943193162,-4.725 8.037675622413705,0 8.037675622413705,12.414698057840827&#10;c 0,7.1039027273973545 -6.53955122970448,11.828902727397354 -26.262190279414458,7.1039027273973545&#10;c -11.142857142857142,-4.725 -6.857142857142857,16.537499999999998 1.333843745006149,32.271097272602645 c 0.0,16.733460258039514 -4.285714285714286,38.982639510388765 18.072784586449064,33.47013951038876&#10;c 6.984985665703972,-4.725 8.975136143559762,0 8.975136143559762,5.904860489611238&#10;c 0,6.482935886945036 -16.637743153297706,11.207935886945036 -18.54580039506748,6.482935886945036&#10;c -11.142857142857142,-4.725 -6.857142857142857,16.537499999999998 -8.502120334941345,32.892064113054964 c 0.0,8.48005992338671 -4.285714285714286,35.178810725285295 16.515418768673104,29.666310725285296&#10;c 4.719601582972471,-4.725 8.457481793397491,0 8.457481793397491,9.708689274714704&#10;c 0,9.124330540087293 -2.8358385260379433,13.849330540087292 -7.97664829079293,9.124330540087293&#10;c -11.142857142857142,-4.725 -6.857142857142857,16.537499999999998 -16.996252271277665,30.250669459912707 c -0.0,16.708186407504947 4.285714285714286,33.13583394220754 -9.73659865690806,27.62333394220754&#10;c -11.367705953999623,-4.725 -17.57972411655102,0 -17.57972411655102,11.751666057792459&#10;c 0,7.571407129589936 14.259407198790221,12.296407129589936 25.935752302690418,7.571407129589936&#10;c 11.142857142857142,-4.725 6.857142857142857,16.537499999999998 1.3805704707686601,31.803592870410064 c -0.0,14.770287945098021 4.285714285714286,39.205321495766185 -14.028872502837796,33.69282149576618&#10;c -9.517653469808547,-4.725 -10.35074633462921,0 -10.35074633462921,5.682178504233818&#10;c 0,12.242957975102343 1.9241538065990575,16.967957975102344 6.698637562155977,12.242957975102343&#10;c 11.142857142857142,-4.725 6.857142857142857,16.537499999999998 17.68098127531103,27.132042024897657 c -0.0,21.23221952104582 4.285714285714286,38.84730830990895 -15.1841108516813,33.334808309908944&#10;c -1.2818024848629028,-4.725 -6.075965227991706,0 -6.075965227991706,6.040191690091056&#10;c 0,9.057052281207262 1.6432498086372131,13.782052281207262 3.522943977847536,9.057052281207262&#10;c 11.142857142857142,-4.725 6.857142857142857,16.537499999999998 17.73713210182547,30.317947718792738 c -0.0,20.626422626109406 4.285714285714286,34.75998710807922 -5.661202711555213,29.247487108079223&#10;c -12.347848170051428,-4.725 -19.650256184710262,0 -19.650256184710262,10.127512891920777&#10;c 0,10.4659585412644 11.166017739496905,15.190958541264399 11.50081112994121,10.4659585412644&#10;c 11.142857142857142,-4.725 6.857142857142857,16.537499999999998 13.810647766324264,28.9090414587356 L 0 630 " fill="none" stroke="black" stroke-width="1.0" style="vector-effect:non-scaling-stroke;" /></g><g><path d="M 0 0  L 1028.571429 0  c 0.0,10.074946074825151 -4.285714285714286,33.61121052156358 18.205231048669113,28.098710521563575&#10;c 0.9529736469222404,-4.725 3.5136754402852652,0 3.5136754402852652,11.276289478436425&#10;c 0,7.544553191937929 -12.845336791193606,12.269553191937929 -19.21933120037411,7.544553191937929&#10;c -11.142857142857142,-4.725 -6.857142857142857,16.537499999999998 -2.4995752885802673,31.83044680806207 c -0.0,21.374914581549756 4.285714285714286,36.96632026179032 -8.170306957879557,31.453820261790323&#10;c -15.171005156109569,-4.725 -18.316427069642327,0 -18.316427069642327,7.921179738209677&#10;c 0,10.28731187774801 16.951772135765236,15.01231187774801 27.63479103876376,10.28731187774801&#10;c 11.142857142857142,-4.725 6.857142857142857,16.537499999999998 -1.1480570112418746,29.08768812225199 c 0.0,20.466743336313307 -4.285714285714286,36.63222428176277 9.415392150079645,31.119724281762764&#10;c 11.392904309939956,-4.725 11.73208282391253,0 11.73208282391253,8.255275718237236&#10;c 0,9.677211696556235 -10.113716949439286,14.402211696556234 -19.275378232347094,9.677211696556235&#10;c -11.142857142857142,-4.725 -6.857142857142857,16.537499999999998 -1.8720967416450804,29.697788303443765 c 0.0,16.92442444749622 -4.285714285714286,36.07253300235396 6.843652779030371,30.560033002353954&#10;c 13.149281183802529,-4.725 21.616494313404676,0 21.616494313404676,8.814966997646046&#10;c 0,7.049377670407679 -7.812679592909151,11.774377670407679 -9.721971081680767,7.049377670407679&#10;c -11.142857142857142,-4.725 -6.857142857142857,16.537499999999998 -18.73817601075428,32.32562232959232 c 0.0,11.960512308346638 -4.285714285714286,36.506050130877206 2.6715531781081903,30.993550130877207&#10;c 10.06402583614717,-4.725 25.59199484703971,0 25.59199484703971,8.381449869122793&#10;c 0,9.970433962258298 -6.463359787998421,14.695433962258297 -28.234200692487523,9.970433962258298&#10;c -11.142857142857142,-4.725 -6.857142857142857,16.537499999999998 -0.02934733266037881,29.404566037741702 c -0.0,17.628418012663058 4.285714285714286,36.23439767859239 -6.368982299144571,30.721897678592384&#10;c -6.229965532740207,-4.725 -22.42069519476464,0 -22.42069519476464,8.653102321407616&#10;c 0,8.80101791020553 15.805106821566365,13.52601791020553 17.926223775115183,8.80101791020553&#10;c 11.142857142857142,-4.725 6.857142857142857,16.537499999999998 10.863453718794027,30.57398208979447 c 0.0,13.494618085629904 -4.285714285714286,37.2169557874228 9.870098565141314,31.704455787422795&#10;c 12.085822167982437,-4.725 15.255615301207945,0 15.255615301207945,7.670544212577205&#10;c 0,10.620445254716437 -7.757496708686665,15.345445254716436 -7.98719377306346,10.620445254716437&#10;c -11.142857142857142,-4.725 -6.857142857142857,16.537499999999998 -17.1385200932858,28.754554745283563 c 0.0,9.483506386139 -4.285714285714286,37.91732547249932 17.85808334449026,32.40482547249932&#10;c 4.526144005410227,-4.725 6.932723584620078,0 6.932723584620078,6.9701745275006814&#10;c 0,8.64766974471192 -5.994350277087416,13.372669744711919 -17.711805719237184,8.64766974471192&#10;c -11.142857142857142,-4.725 -6.857142857142857,16.537499999999998 -7.079001209873155,30.72733025528808 L 0 630 " fill="none" stroke="black" stroke-width="1.0" style="vector-effect:non-scaling-stroke;" /></g><g><path d="M 0 0  L 1114.285714 0  c -0.0,20.400252111518462 4.285714285714286,35.73069033189522 -9.13550299752579,30.218190331895215&#10;c -15.489513607177155,-4.725 -17.47249471052822,0 -17.47249471052822,9.156809668104785&#10;c 0,5.732906568048804 9.994996197574679,10.457906568048804 12.498456203957279,5.732906568048804&#10;c 11.142857142857142,-4.725 6.857142857142857,16.537499999999998 14.109541504096732,33.642093431951196 c -0.0,17.58560953154368 4.285714285714286,34.86838109757543 0.3538809893659531,29.35588109757543&#10;c -11.799848782586515,-4.725 -20.95744123769552,0 -20.95744123769552,10.01911890242457&#10;c 0,9.627205499740285 12.071698474905823,14.352205499740284 15.233761956060828,9.627205499740285&#10;c 11.142857142857142,-4.725 6.857142857142857,16.537499999999998 5.369798292268737,29.747794500259715 c -0.0,12.51259240675946 4.285714285714286,32.641204971317194 -1.7420992427806679,27.128704971317195&#10;c -5.248261105717599,-4.725 -24.372913309380642,0 -24.372913309380642,12.246295028682805&#10;c 0,10.183274242277115 12.608835698753595,14.908274242277114 23.565545742558847,10.183274242277115&#10;c 11.142857142857142,-4.725 6.857142857142857,16.537499999999998 2.549466809602464,29.191725757722885 c -0.0,7.7572133509030134 4.285714285714286,34.00648646819505 -10.649548955473467,28.49398646819505&#10;c -5.069607614339824,-4.725 -10.905430585911184,0 -10.905430585911184,10.88101353180495&#10;c 0,7.549123434368113 5.631788005864461,12.274123434368112 10.650607658152158,7.549123434368113&#10;c 11.142857142857142,-4.725 6.857142857142857,16.537499999999998 10.904371883232493,31.825876565631887 c 0.0,7.788498600676863 -4.285714285714286,37.995046910252 -0.19780997731949881,32.482546910252&#10;c 7.11909400608925,-4.725 24.661072670028283,0 24.661072670028283,6.8924530897480025&#10;c 0,6.613404459903009 -2.85623711538803,11.338404459903009 -13.110218991420753,6.613404459903009&#10;c -11.142857142857142,-4.725 -6.857142857142857,16.537499999999998 -11.353043701288032,32.76159554009699 c -0.0,20.01268308041455 4.285714285714286,37.04273659651437 -9.355867370640567,31.530236596514367&#10;c -18.037987894971536,-4.725 -18.067210481064205,0 -18.067210481064205,7.844763403485633&#10;c 0,10.62255695001869 3.7140543670260424,15.34755695001869 13.113174941741308,10.62255695001869&#10;c 11.142857142857142,-4.725 6.857142857142857,16.537499999999998 14.309902909963464,28.75244304998131 c 0.0,4.508831555791907 -4.285714285714286,37.60310716752492 16.865099937431644,32.090607167524915&#10;c 3.18972968276911,-4.725 8.693939217021047,0 8.693939217021047,7.284392832475085&#10;c 0,6.093941930668343 -3.0514704209065147,10.818941930668343 -7.833481842719692,6.093941930668343&#10;c -11.142857142857142,-4.725 -6.857142857142857,16.537499999999998 -17.725557311733,33.28105806933166 c 0.0,7.5030009868288134 -4.285714285714286,38.074555394220006 -0.08723019061415674,32.56205539422&#10;c 20.213153440411553,-4.725 24.63628737620226,0 24.63628737620226,6.812944605779997&#10;c 0,7.4756051880373136 -5.317723425171183,12.200605188037313 -12.064522016682206,7.4756051880373136&#10;c -11.142857142857142,-4.725 -6.857142857142857,16.537499999999998 -12.484535168905898,31.899394811962686 L 0 630 " fill="none" stroke="black" stroke-width="1.0" style="vector-effect:non-scaling-stroke;" /></g></g><g><g><path d="M 0 0  L 0 78.750000  c 20.94178672370603,-0.0 39.25299610712161,3.9375 33.25299610712161,-5.566303124536409&#10;c -5.142857142857142,-4.031059924376863 0,-16.78647307436318 9.604146750021243,-16.78647307436318&#10;c 12.404326392046293,0 17.547183534903436,5.790377079802247 12.404326392046293,8.476145623801933&#10;c -5.142857142857142,10.2375 17.999999999999996,6.3 30.45281646509656,13.876630575097657 c 17.15232448062742,0.0 42.02969555849458,-3.9375 36.02969555849458,11.469736055944127&#10;c -5.142857142857142,8.839872054204164 0,13.456628958614042 6.8274472986482735,13.456628958614042&#10;c 7.771870916220948,0 12.91472805907809,-7.360663723035421 7.771870916220948,-15.546981142205777&#10;c -5.142857142857142,-10.2375 17.999999999999996,-6.3 35.085271940921906,-9.379383872352392 c 21.59246227728483,-0.0 37.02981330980427,3.9375 31.029813309804272,0.3768186080117159&#10;c -5.142857142857142,-16.72821975831141 0,-19.75692983021414 11.827329547338582,-19.75692983021414&#10;c 12.27795274944232,0 17.420809892299463,3.0061213551242183 12.27795274944232,9.091189046539933&#10;c -5.142857142857142,10.2375 17.999999999999996,6.3 30.579190107700533,10.28892217566249 c 18.019578843111454,0.0 37.85370325518983,-3.9375 31.85370325518983,13.061805559336742&#10;c -5.142857142857142,7.288429099967241 0,11.31654436052318 11.003439601953023,11.31654436052318&#10;c 7.87750114728933,0 13.020358290146472,-6.137573284350299 7.87750114728933,-19.349232606677173&#10;c -5.142857142857142,-10.2375 17.999999999999996,-6.3 34.979641709853524,-5.0291173131827485 c 5.5901447957929875,0.0 36.1344712224457,-3.9375 30.134471222445697,8.977811363873382&#10;c -5.142857142857142,8.822022573828356 0,12.797429646685792 12.722671634697157,12.797429646685792&#10;c 13.471832637192911,0 18.614689780050053,-14.145437094812337 13.471832637192911,-21.301717834379456&#10;c -5.142857142857142,-10.2375 17.999999999999996,-6.3 29.385310219949943,-0.47352317617971806 c 7.760120626045106,-0.0 35.87785537252948,3.9375 29.877855372529478,0.3697067832372469&#10;c -5.142857142857142,-5.820046719412139 0,-23.74939756237307 12.979287484613376,-23.74939756237307&#10;c 9.448242339249965,0 14.591099482107108,3.772066970846099 9.448242339249965,6.906545247879254&#10;c -5.142857142857142,10.2375 17.999999999999996,6.3 33.40890051789289,16.473145531256566 c 4.872044022799083,-0.0 36.683443294751655,3.9375 30.68344329475165,-0.8474086825053395&#10;c -5.142857142857142,-8.981163074022533 0,-25.737856585042206 12.173699562391203,-25.737856585042206&#10;c 7.4233463483806545,0 12.566203491237797,12.918720421790418 7.4233463483806545,27.835811248462704&#10;c -5.142857142857142,10.2375 17.999999999999996,6.3 35.4337965087622,-1.2505459809151596 c 13.708999491134827,-0.0 40.10577301236029,3.9375 34.10577301236029,-7.14394966184697&#10;c -5.142857142857142,-4.991903298108027 0,-15.797017462818829 8.751369844782566,-15.797017462818829&#10;c 9.70419687497671,0 14.847054017833852,14.990061080108763 9.70419687497671,19.41574217912491&#10;c -5.142857142857142,10.2375 17.999999999999996,6.3 33.152945982166145,3.5252249455408915 c 4.362509853764478,-0.0 40.42751710657123,3.9375 34.42751710657123,-11.703592708556965&#10;c -5.142857142857142,-8.07159549128603 0,-10.180123430893197 8.429625750571624,-10.180123430893197&#10;c 9.940862151665982,0 15.083719294523124,7.699969136695807 9.940862151665982,12.715412129890659&#10;c -5.142857142857142,10.2375 17.999999999999996,6.3 32.91628070547687,9.168304009559503 c 14.251906561115678,0.0 35.83657512028786,-3.9375 29.83657512028786,14.893075936157032&#10;c -5.142857142857142,4.16324661656229 0,11.182725489200184 13.020567736854993,11.182725489200184&#10;c 6.87857360381215,0 12.021430746669292,-22.42955158917114 6.87857360381215,-27.619312035273943&#10;c -5.142857142857142,-10.2375 17.999999999999996,-6.3 35.978569253330704,1.5435106099167264 c 16.09990986904044,-0.0 42.78085698283779,3.9375 36.78085698283779,-14.352894335030946&#10;c -5.142857142857142,-1.8532892390595332 0,-8.551708957258775 6.076285874305064,-8.551708957258775&#10;c 10.08029585125184,0 15.223152994108982,18.285277249568743 10.08029585125184,22.944093211571904&#10;c -5.142857142857142,10.2375 17.999999999999996,6.3 32.776847005891014,-0.039489919282182484 c 9.931995124198815,-0.0 35.74027432104476,3.9375 29.740274321044758,-10.19004283816642&#10;c -5.142857142857142,-13.734565365927788 0,-13.753808951189473 13.116868536098096,-13.753808951189473&#10;c 12.695732287638563,0 17.838589430495706,21.629011410675783 12.695732287638563,22.615233759663667&#10;c -5.142857142857142,10.2375 17.999999999999996,6.3 30.16141056950429,1.328618029692226 c 9.463177018244322,-0.0 37.37296815183557,3.9375 31.372968151835572,-1.1268695773237598&#10;c -5.142857142857142,-20.020397093606665 0,-21.78899795562568 11.484174705307282,-21.78899795562568&#10;c 8.542616061475883,0 13.685473204333025,11.461078797442356 8.542616061475883,13.342271344306853&#10;c -5.142857142857142,10.2375 17.999999999999996,6.3 34.31452679566697,9.573596188642584 c 9.480907443695994,0.0 38.55797612670945,-3.9375 32.55797612670945,10.375910299328135&#10;c -5.142857142857142,2.999238455290093 0,12.95786518746993 10.299166730433406,12.95786518746993&#10;c 10.004914549927463,0 15.147771692784605,-19.541116285108558 10.004914549927463,-23.784031145324036&#10;c -5.142857142857142,-10.2375 17.999999999999996,-6.3 32.85222830721539,0.4502556585259718 L 1200 0 " fill="none" stroke="black" stroke-width="1.0" style="vector-effect:non-scaling-stroke;" /></g><g><path d="M 0 0  L 0 157.500000  c 9.782543166099101,-0.0 40.3830041602828,3.9375 34.3830041602828,-4.305073454886652&#10;c -5.142857142857142,-13.102302907291735 0,-18.598706755530504 8.474138696860052,-18.598706755530504&#10;c 12.654131834833116,0 17.79698897769026,3.612586469963458 12.654131834833116,12.921725636596534&#10;c -5.142857142857142,10.2375 17.999999999999996,6.3 30.203011022309738,9.982054573820623 c 16.97032880707029,-0.0 40.84313179565343,3.9375 34.84313179565343,-11.605223377928613&#10;c -5.142857142857142,-9.077730281769307 0,-11.832307882678151 8.014011061489427,-11.832307882678151&#10;c 9.734218082606382,0 14.877075225463525,3.830575280840489 9.734218082606382,8.54589086558518&#10;c -5.142857142857142,10.2375 17.999999999999996,6.3 33.12292477453647,14.891640395021584 c 16.9836732824758,0.0 36.99561601594911,-3.9375 30.995616015949114,15.575465739594526&#10;c -5.142857142857142,4.513226712427065 0,10.258143693312919 11.86152684119374,10.258143693312919&#10;c 9.0928559201772,0 14.235713063034343,-13.43783563437803 9.0928559201772,-21.117555535405998&#10;c -5.142857142857142,-10.2375 17.999999999999996,-6.3 33.764286936965654,-4.716053897501446 c 18.056045925252725,0.0 42.50754877867715,-3.9375 36.50754877867715,9.866084600026305&#10;c -5.142857142857142,8.72018213372573 0,9.845167341723439 6.349594078465707,9.845167341723439&#10;c 7.8042990990166885,0 12.94715624187383,-3.8457044833898943 7.8042990990166885,-10.168622432538209&#10;c -5.142857142857142,-10.2375 17.999999999999996,-6.3 35.052843758126166,-9.542629509211535 c 13.579984614095721,-0.0 40.0370105274161,3.9375 34.0370105274161,-6.369559165895112&#10;c -5.142857142857142,-15.503426645221921 0,-19.337088387442925 8.820132329726754,-19.337088387442925&#10;c 8.323783639269955,0 13.466640782127097,17.47585046076831 8.323783639269955,21.101721903916967&#10;c -5.142857142857142,10.2375 17.999999999999996,6.3 34.5333592178729,4.6049256494210695 c 8.890241426509501,0.0 36.89344566870267,-3.9375 30.893445668702668,-1.0889253549917801&#10;c -5.142857142857142,21.698598193067927 0,21.530713740199054 11.963697188440186,21.530713740199054&#10;c 12.626664701691134,0 17.769521844548276,-15.854248696880541 12.626664701691134,-16.072378402367697&#10;c -5.142857142857142,-10.2375 17.999999999999996,-6.3 30.23047815545172,-4.369409982839578 c 8.498774142025502,0.0 40.50637766036833,-3.9375 34.50637766036833,3.106832475766408&#10;c -5.142857142857142,4.357743143008522 0,16.356532843910212 8.350765196774525,16.356532843910212&#10;c 13.447319914764527,0 18.59017705762167,-1.788979742165963 13.447319914764527,-2.433017597875022&#10;c -5.142857142857142,-10.2375 17.999999999999996,-6.3 29.409822942378327,-17.030347721801597 c 5.546501096995041,-0.0 41.570816123631445,3.9375 35.570816123631445,-12.325258307168601&#10;c -5.142857142857142,-11.865770309307683 0,-12.713985442872895 7.286326733511409,-12.713985442872895&#10;c 8.953234709353168,0 14.09609185221031,10.91828552849142 8.953234709353168,10.931740045717495&#10;c -5.142857142857142,10.2375 17.999999999999996,6.3 33.903908147789686,14.107503704324001 c 12.552532518625714,-0.0 39.023076381676,3.9375 33.023076381676,1.0234465168288467&#10;c -5.142857142857142,-16.705048427561994 0,-20.864403538528908 9.834066475466855,-20.864403538528908&#10;c 6.058264289078167,0 11.20112143193531,2.139721605291216 6.058264289078167,8.997297778556288&#10;c -5.142857142857142,10.2375 17.999999999999996,6.3 36.79887856806469,10.843659243143772 c 11.185941553478543,-0.0 36.17664139845897,3.9375 30.176641398458973,-0.08153300880411488&#10;c -5.142857142857142,-19.071717398596718 0,-19.376768632241067 12.680501458683882,-19.376768632241067&#10;c 9.17142973462171,0 14.314286877478853,6.302121213108233 9.17142973462171,8.161446711605238&#10;c -5.142857142857142,10.2375 17.999999999999996,6.3 33.68571312252114,11.296854929439943 c 15.069599181258218,0.0 35.481730216920276,-3.9375 29.481730216920276,-0.04958692135995939&#10;c -5.142857142857142,19.41604690006511 0,24.954565972833336 13.375412640222578,24.954565972833336&#10;c 8.069816029202457,0 13.2126731720596,-3.0812467796021847 8.069816029202457,-10.96319526945506&#10;c -5.142857142857142,-10.2375 17.999999999999996,-6.3 34.7873268279404,-13.941783782018316 c 12.965187380593468,-0.0 39.86329626655619,3.9375 33.86329626655619,-5.963327604399068&#10;c -5.142857142857142,-17.186465691619485 0,-18.69445972674732 8.993846590586664,-18.69445972674732&#10;c 6.802781027363672,0 11.945638170220814,5.681553430977207 6.802781027363672,11.45041156889742&#10;c -5.142857142857142,10.2375 17.999999999999996,6.3 36.05436182977918,13.207375762248967 c 23.44072640233611,0.0 38.32578545743577,-3.9375 32.32578545743577,5.741096829258799&#10;c -5.142857142857142,7.29055976953427 0,15.830914756858038 10.531357399707083,15.830914756858038&#10;c 12.628873154691533,0 17.771730297548675,-7.795216025181549 12.628873154691533,-16.743148769740554&#10;c -5.142857142857142,-10.2375 17.999999999999996,-6.3 30.22826970245132,-4.828862816376283 c 16.05925799748852,0.0 41.108449160577806,-3.9375 35.108449160577806,3.916864470906292&#10;c -5.142857142857142,9.643448115636666 0,18.35384258883402 7.748693696565049,18.35384258883402&#10;c 10.13601964672337,0 15.278876789580512,-11.696156068053737 10.13601964672337,-21.27903758024323&#10;c -5.142857142857142,-10.2375 17.999999999999996,-6.3 32.721123210419485,-0.9916694794970802 L 1200 0 " fill="none" stroke="black" stroke-width="1.0" style="vector-effect:non-scaling-stroke;" /></g><g><path d="M 0 0  L 0 236.250000  c 17.878933578648237,0.0 35.31827514627335,-3.9375 29.318275146273347,7.536916899178679&#10;c -5.142857142857142,14.909079857362462 0,16.069095793524458 13.538867710869507,16.069095793524458&#10;c 13.482893674631825,0 18.625750817488967,-14.385658602527615 13.482893674631825,-14.349806463832106&#10;c -5.142857142857142,-10.2375 17.999999999999996,-6.3 29.37424918251103,-9.25620622887103 c 17.578239659898408,-0.0 39.707677483575495,3.9375 33.707677483575495,-6.442042748459222&#10;c -5.142857142857142,-11.994879467355194 0,-17.119118134009465 9.14946537356736,-17.119118134009465&#10;c 7.519914182927636,0 12.662771325784778,9.473181603886001 7.519914182927636,24.72078004606611&#10;c -5.142857142857142,10.2375 17.999999999999996,6.3 35.33722867421522,-1.159619163597423 c 21.90896616425969,0.0 39.31553506364082,-3.9375 33.31553506364082,9.012327330957175&#10;c -5.142857142857142,4.452475491023754 0,15.897905321215648 9.541607793502031,15.897905321215648&#10;c 13.345127607672161,0 18.487984750529304,-7.806431128135613 13.345127607672161,-9.635951453232686&#10;c -5.142857142857142,-10.2375 17.999999999999996,-6.3 29.512015249470693,-15.274281198940137 c 4.830662511851446,0.0 35.52695014435299,-3.9375 29.526950144352988,5.70800385482282&#10;c -5.142857142857142,15.61190592369409 0,17.134083944739295 13.330192712789867,17.134083944739295&#10;c 7.49866594538927,0 12.641523088246412,-3.3412102079190547 7.49866594538927,-7.751914447189749&#10;c -5.142857142857142,-10.2375 17.999999999999996,-6.3 35.358476911753584,-15.090173352372366 c 13.633105874507306,-0.0 41.61107252620732,3.9375 35.61107252620732,-5.500159236567599&#10;c -5.142857142857142,-14.614823434230445 0,-16.266985105111807 7.246070330935531,-16.266985105111807&#10;c 8.972873329122159,0 14.115730471979301,6.894007016233689 8.972873329122159,9.653040860802827&#10;c -5.142857142857142,10.2375 17.999999999999996,6.3 33.884269528020695,12.114103480876578 c 15.336549292840024,0.0 38.41010957423864,-3.9375 32.41010957423864,3.453572534836111&#10;c -5.142857142857142,16.15187306682558 0,16.24212234312335 10.447033282904215,16.24212234312335&#10;c 10.517421258784942,0 15.660278401642085,-13.642333774308451 10.517421258784942,-13.799892592484367&#10;c -5.142857142857142,-10.2375 17.999999999999996,-6.3 32.33972159835791,-5.895802285475094 c 12.813521628639744,-0.0 38.13843619090914,3.9375 32.13843619090914,-8.762833118022519&#10;c -5.142857142857142,-7.234283882604867 0,-14.809975951744567 10.718706666233714,-14.809975951744567&#10;c 13.181862670765632,0 18.324719813622774,20.111996509315436 13.181862670765632,22.693026229387943&#10;c -5.142857142857142,10.2375 17.999999999999996,6.3 29.675280186377222,0.8797828403791428 c 23.84652247898534,0.0 40.7268154104582,-3.9375 34.7268154104582,3.4205685638066043&#10;c -5.142857142857142,12.407666248212946 0,20.695479826627523 8.130327446684653,20.695479826627523&#10;c 10.318204231203943,0 15.461061374061085,-10.81384594273675 10.318204231203943,-21.80242963595081&#10;c -5.142857142857142,-10.2375 17.999999999999996,-6.3 32.53893862593891,-2.3136187544833184 c 8.298840823264836,0.0 38.999485275307556,-3.9375 32.999485275307556,5.628249452113749&#10;c -5.142857142857142,10.461019841104811 0,21.100806062061874 9.857657581835298,21.100806062061874&#10;c 8.867704777540453,0 14.010561920397596,-2.5464972790014153 8.867704777540453,-10.139643961632228&#10;c -5.142857142857142,-10.2375 17.999999999999996,-6.3 33.9894380796024,-16.589411552543396 c 16.74673456099003,0.0 41.86262572913487,-3.9375 35.86262572913487,5.883926589445947&#10;c -5.142857142857142,8.63087892382215 0,13.292353029896391 6.994517128007985,13.292353029896391&#10;c 7.694563180538935,0 12.837420323396078,-7.6553135874247005 7.694563180538935,-13.42203100374358&#10;c -5.142857142857142,-10.2375 17.999999999999996,-6.3 35.16257967660392,-5.754248615598758 c 11.034679505519504,0.0 40.39751511107675,-3.9375 34.39751511107675,-0.8355952859056228&#10;c -5.142857142857142,7.750334246463837 0,23.69119431494186 8.459627746066104,23.69119431494186&#10;c 11.108252113339567,0 16.25110925619671,-9.55026519718381 11.108252113339567,-20.78302430392641&#10;c -5.142857142857142,-10.2375 17.999999999999996,-6.3 31.748890743803287,-2.0725747251098277 c 22.450348749808608,0.0 39.531465341466124,-3.9375 33.531465341466124,14.112368654520834&#10;c -5.142857142857142,2.7572072295037833 0,11.407873657181119 9.32567751567673,11.407873657181119&#10;c 8.298737945649222,0 13.441595088506364,-19.563070716488205 8.298737945649222,-25.509255184085934&#10;c -5.142857142857142,-10.2375 17.999999999999996,-6.3 34.55840491149363,-0.010987127616019166 c 23.84460080860367,-0.0 41.25419322327499,3.9375 35.25419322327499,-9.700832276408432&#10;c -5.142857142857142,-3.1555514147713857 0,-10.28077054502261 7.6029496338678655,-10.28077054502261&#10;c 9.435793694694581,0 14.578650837551724,7.957804721724155 9.435793694694581,20.612884696415968&#10;c -5.142857142857142,10.2375 17.999999999999996,6.3 33.42134916244827,-0.6312818749849249 c 13.482966091086537,0.0 41.51413871436058,-3.9375 35.51413871436058,16.490707570025855&#10;c -5.142857142857142,4.153056311347181 0,4.999982189574901 7.343004142782277,4.999982189574901&#10;c 9.44227470013032,0 14.585131842987462,-10.049162326715406 9.44227470013032,-14.055658759941064&#10;c -5.142857142857142,-10.2375 17.999999999999996,-6.3 33.414868157012535,-7.435030999659691 L 1200 0 " fill="none" stroke="black" stroke-width="1.0" style="vector-effect:non-scaling-stroke;" /></g><g><path d="M 0 0  L 0 315.000000  c 14.73677542392464,0.0 41.372050518992964,-3.9375 35.372050518992964,1.5622276964263444&#10;c -5.142857142857142,16.093229456827213 0,19.37682973508917 7.48509233814989,19.37682973508917&#10;c 12.329955757353183,0 17.472812900210325,-8.49602168818942 12.329955757353183,-11.340683121243597&#10;c -5.142857142857142,-10.2375 17.999999999999996,-6.3 30.52718709978967,-9.598374310271918 c 10.699380613716007,0.0 36.29728152086139,-3.9375 30.297281520861393,10.101307578266347&#10;c -5.142857142857142,5.161025683908912 0,14.202094544808492 12.559861336281461,14.202094544808492&#10;c 8.12133405026728,0 13.264191193124422,-8.184007032451172 8.12133405026728,-8.494022264083748&#10;c -5.142857142857142,-10.2375 17.999999999999996,-6.3 34.735808806875575,-15.809379858991091 c 6.101125540238406,0.0 36.69160886043828,-3.9375 30.691608860438276,10.81398916806144&#10;c -5.142857142857142,4.331336590797544 0,14.077927755553546 12.165533996704578,14.077927755553546&#10;c 6.333209772131731,0 11.476066914988873,-15.211779782910176 6.333209772131731,-16.298579975975546&#10;c -5.142857142857142,-10.2375 17.999999999999996,-6.3 36.52393308501112,-8.59333694763944 c 20.514380281741865,-0.0 36.09877001505406,3.9375 30.098770015054054,-8.44476782795158&#10;c -5.142857142857142,-6.318717263164083 0,-11.15462209751814 12.7583728420888,-11.15462209751814&#10;c 12.800766687120863,0 17.943623829978005,2.4350485253531264 12.800766687120863,2.4627580413570413&#10;c -5.142857142857142,10.2375 17.999999999999996,6.3 30.05637617002199,17.136631884112678 c 9.75507693744023,-0.0 40.4281579575803,3.9375 34.4281579575803,-16.04554695046457&#10;c -5.142857142857142,-3.6665419140920426 0,-4.271428082382055 8.428984899562558,-4.271428082382055&#10;c 9.83876187002975,0 14.981619012886892,5.675806028475271 9.83876187002975,20.985377374396755&#10;c -5.142857142857142,10.2375 17.999999999999996,6.3 33.018380987113105,-0.6684023415501308 c 23.04296143266,-0.0 39.27727611828343,3.9375 33.27727611828343,-8.35298831622642&#10;c -5.142857142857142,-12.90524697375059 0,-16.229718418645803 9.579866738859423,-16.229718418645803&#10;c 13.375770642835306,0 18.51862778569245,10.733955507764291 13.375770642835306,11.708456077553157&#10;c -5.142857142857142,10.2375 17.999999999999996,6.3 29.481372214307548,12.874250657319065 c 21.867899464378457,-0.0 39.3742390700151,3.9375 33.3742390700151,-11.357802005301863&#10;c -5.142857142857142,-10.78058509054091 0,-10.949271208024932 9.482903787127754,-10.949271208024932&#10;c 13.167946249310113,0 18.310803392167255,19.803244895127328 13.167946249310113,23.625219637613856&#10;c -5.142857142857142,10.2375 17.999999999999996,6.3 29.68919660783274,-1.318146424287061 c 13.359916226133723,-0.0 42.06612290774634,3.9375 36.06612290774634,-4.290785028517719&#10;c -5.142857142857142,-5.258526388457558 0,-14.964042316176053 6.791019949396514,-14.964042316176053&#10;c 13.259876791741647,0 18.40273393459879,14.081165539715602 13.259876791741647,15.72737426078987&#10;c -5.142857142857142,10.2375 17.999999999999996,6.3 29.597266065401207,3.527453083903902 c 11.173584428668542,0.0 40.62964733658983,-3.9375 34.62964733658983,14.21091468393863&#10;c -5.142857142857142,4.007292345163138 0,6.227822815212024 8.227495520553028,6.227822815212024&#10;c 9.343792910580696,0 14.486650053437838,-9.5240061751738 9.343792910580696,-20.70415833985933&#10;c -5.142857142857142,-10.2375 17.999999999999996,-6.3 33.51334994656216,0.2654208407086749 c 4.43034878274416,-0.0 35.602904717212276,3.9375 29.602904717212276,-10.56547631473258&#10;c -5.142857142857142,-2.3976204112995365 0,-9.910464715847668 13.254238139930578,-9.910464715847668&#10;c 7.182157603469669,0 12.325014746326811,7.67671716126214 7.182157603469669,10.925552842430026&#10;c -5.142857142857142,10.2375 17.999999999999996,6.3 35.674985253673185,9.550388188150222 c 17.70954036770855,0.0 39.01230133059191,-3.9375 33.01230133059191,17.189968034782154&#10;c -5.142857142857142,1.9507516836561125 0,6.270662840329219 9.844841526550944,6.270662840329219&#10;c 11.164707855862638,0 16.30756499871978,-9.520056521581964 11.164707855862638,-10.73074263695467&#10;c -5.142857142857142,-10.2375 17.999999999999996,-6.3 31.692435001280217,-12.729888238156704 c 9.308221669546091,-0.0 40.27833876493819,3.9375 34.27833876493819,-17.109755185759308&#10;c -5.142857142857142,-3.7858846240066217 0,-6.517484841562471 8.578804092204663,-6.517484841562471&#10;c 8.550623836154998,0 13.69348097901214,15.665341111079663 8.550623836154998,18.620073054496544&#10;c -5.142857142857142,10.2375 17.999999999999996,6.3 34.30651902098786,5.007166972825235 c 13.962265649886627,0.0 36.42074837426638,-3.9375 30.420748374266385,2.7673844300116297&#10;c -5.142857142857142,6.385080408820976 0,18.664524961067443 12.43639448287647,18.664524961067443&#10;c 11.021737712845905,0 16.164594855703047,-8.253157710310404 11.021737712845905,-15.375645540672842&#10;c -5.142857142857142,-10.2375 17.999999999999996,-6.3 31.83540514429695,-6.056263850406232 c 12.748324399810645,-0.0 39.61697598163068,3.9375 33.61697598163068,-10.472420698572215&#10;c -5.142857142857142,-10.019285847570357 0,-10.671475730787268 9.240166875512173,-10.671475730787268&#10;c 6.9248089878400165,0 12.067666130697159,12.357317841740981 6.9248089878400165,15.194047704584612&#10;c -5.142857142857142,10.2375 17.999999999999996,6.3 35.93233386930284,5.949848724774871 L 1200 0 " fill="none" stroke="black" stroke-width="1.0" style="vector-effect:non-scaling-stroke;" /></g><g><path d="M 0 0  L 0 393.750000  c 9.560496135293873,-0.0 40.6373388489632,3.9375 34.6373388489632,-16.107199617264055&#10;c -5.142857142857142,-6.613818378177195 0,-8.107940615388735 8.21980400817965,-8.107940615388735&#10;c 11.946281006306705,0 17.089138149163848,7.790985271040451 11.946281006306705,19.654170578185933&#10;c -5.142857142857142,10.2375 17.999999999999996,6.3 30.91086185083615,4.560969654466856 c 17.731754225719094,-0.0 37.151051613349566,3.9375 31.151051613349562,-1.3348713435166477&#10;c -5.142857142857142,-8.650373138347714 0,-18.642553650786212 11.706091243793292,-18.642553650786212&#10;c 8.270492741105251,0 13.413349883962393,8.57314095626161 8.270492741105251,18.859279364613585&#10;c -5.142857142857142,10.2375 17.999999999999996,6.3 34.5866501160376,1.1181456296892733 c 24.13819229684937,0.0 38.16315632907832,-3.9375 32.16315632907832,1.2955398689669304&#10;c -5.142857142857142,4.705118717448702 0,18.47166672981458 10.693986528064535,18.47166672981458&#10;c 6.705306531623165,0 11.848163674480308,-18.11033227105258 6.705306531623165,-18.015317936031536&#10;c -5.142857142857142,-10.2375 17.999999999999996,-6.3 36.15183632551969,-1.7518886627499732 c 16.636141793492687,0.0 35.619720089615825,-3.9375 29.61972008961583,8.663794659491796&#10;c -5.142857142857142,6.691148503054726 0,10.243908633225367 13.237422767527026,10.243908633225367&#10;c 10.603357771687868,0 15.74621491454501,-2.9621753989534705 10.603357771687868,-8.818359614836316&#10;c -5.142857142857142,-10.2375 17.999999999999996,-6.3 32.253785085454986,-10.089343677880846 c 22.46796845691809,0.0 35.678533916143145,-3.9375 29.678533916143145,14.45026575047835&#10;c -5.142857142857142,5.421174271042469 0,7.331333203764016 13.178608940999709,7.331333203764016&#10;c 12.089313331787736,0 17.232170474644878,-9.51046246510336 12.089313331787736,-15.244693869208906&#10;c -5.142857142857142,-10.2375 17.999999999999996,-6.3 30.76782952535512,-6.53690508503346 c 15.521104461683741,0.0 41.45271414742793,-3.9375 35.45271414742793,3.3518829320251062&#10;c -5.142857142857142,9.83765126476585 0,22.40417097454472 7.404428709714921,22.40417097454472&#10;c 12.915662239764139,0 18.05851938262128,-12.807110601009256 12.915662239764139,-19.36403822996363&#10;c -5.142857142857142,-10.2375 17.999999999999996,-6.3 29.941480617378716,-6.392015676606196 c 7.5372616684628335,-0.0 36.30897358514276,3.9375 30.30897358514276,-6.810178527852786&#10;c -5.142857142857142,-8.56989754426336 0,-14.797437868093711 12.548169272000095,-14.797437868093711&#10;c 12.259220552789898,0 17.40207769564704,5.9444309589465405 12.259220552789898,7.96012719851174&#10;c -5.142857142857142,10.2375 17.999999999999996,6.3 30.597922304352956,13.647489197434757 c 13.089766628362513,0.0 38.385705370001986,-3.9375 32.385705370001986,5.737194218851659&#10;c -5.142857142857142,6.37172324844492 0,18.181981820190668 10.471437487140868,18.181981820190668&#10;c 6.547498959152726,0 11.690356102009869,-10.421210649912785 6.547498959152726,-19.56495811345899&#10;c -5.142857142857142,-10.2375 17.999999999999996,-6.3 36.30964389799013,-4.354217925583338 c 17.17846286581686,-0.0 39.12359815223003,3.9375 33.12359815223003,-6.4598216110404225&#10;c -5.142857142857142,-7.181837976577505 0,-14.372863612079726 9.733544704912823,-14.372863612079726&#10;c 12.836639347919736,0 17.979496490776878,8.017305011230487 12.836639347919736,21.442201764025445&#10;c -5.142857142857142,10.2375 17.999999999999996,6.3 30.02050350922312,-0.6095165409052967 c 12.06491605002337,-0.0 41.73815103993612,3.9375 35.73815103993612,-0.05919574718180698&#10;c -5.142857142857142,-20.81991813744643 0,-24.35205775305231 7.118991817206734,-24.35205775305231&#10;c 6.991789119466169,0 12.134646262323312,18.818024067863895 6.991789119466169,19.234490953797533&#10;c -5.142857142857142,10.2375 17.999999999999996,6.3 35.865353737676685,5.176762546436585 c 20.718477889918002,0.0 39.531678016468575,-3.9375 33.531678016468575,1.861626597741105&#10;c -5.142857142857142,11.636874308320865 0,18.562709913867277 9.325464840674279,18.562709913867277&#10;c 10.551593615286691,0 15.694450758143834,-3.460385336599235 10.551593615286691,-3.5923187030429133&#10;c -5.142857142857142,-10.2375 17.999999999999996,-6.3 32.30554924185616,-16.832017808565467 c 14.878917180052985,-0.0 37.726968282514214,3.9375 31.726968282514214,-15.395384710410399&#10;c -5.142857142857142,-7.3708893073103114 0,-9.514479023049082 11.13017457462864,-9.514479023049082&#10;c 9.270534714690747,0 14.41339185754789,9.960563162088688 9.270534714690747,19.953502109247363&#10;c -5.142857142857142,10.2375 17.999999999999996,6.3 33.58660814245211,4.956361624212118 c 11.425471380722259,-0.0 37.71056165544702,3.9375 31.71056165544702,-11.043421933427918&#10;c -5.142857142857142,-4.350387888170061 0,-10.7446725674235 11.146581201695835,-10.7446725674235&#10;c 7.9136074997497445,0 13.056464642606887,14.327796893955783 7.9136074997497445,21.745745555652697&#10;c -5.142857142857142,10.2375 17.999999999999996,6.3 34.94353535739311,0.042348945198721566 c 17.594436403234187,0.0 36.4300104779405,-3.9375 30.430010477940503,11.89098908114539&#10;c -5.142857142857142,6.134601154239493 0,7.2493853412801865 12.427132379202352,7.2493853412801865&#10;c 6.879477804354373,0 12.022334947211515,-9.27244781800262 6.879477804354373,-20.278781895860302&#10;c -5.142857142857142,-10.2375 17.999999999999996,-6.3 35.97766505278848,1.1384074734347251 L 1200 0 " fill="none" stroke="black" stroke-width="1.0" style="vector-effect:non-scaling-stroke;" /></g><g><path d="M 0 0  L 0 472.500000  c 24.30693663833665,0.0 42.599329663076986,-3.9375 36.599329663076986,7.5014438578907825&#10;c -5.142857142857142,8.685215058126774 0,15.320423176538883 6.257813194065868,15.320423176538883&#10;c 6.5286731059596335,0 11.671530248816776,-16.027734407475005 6.5286731059596335,-18.363500783816704&#10;c -5.142857142857142,-10.2375 17.999999999999996,-6.3 36.32846975118322,-4.458366250612961 c 8.802199076956283,0.0 37.43192354279026,-3.9375 31.43192354279026,0.7844296506455823&#10;c -5.142857142857142,19.624609222441148 0,24.882421633747477 11.425219314352596,24.882421633747477&#10;c 10.574616028854095,0 15.717473171711237,-4.189195198290749 10.574616028854095,-15.135162769947454&#10;c -5.142857142857142,-10.2375 17.999999999999996,-6.3 32.28252682828876,-10.531688514445603 c 6.420086852357206,-0.0 36.31091567730823,3.9375 30.31091567730823,-3.769959052832181&#10;c -5.142857142857142,-5.8973376349280615 0,-17.77202003872238 12.546227179834624,-17.77202003872238&#10;c 9.651078987789226,0 14.793936130646369,7.400347765937042 9.651078987789226,10.173563235065684&#10;c -5.142857142857142,10.2375 17.999999999999996,6.3 33.20606386935363,11.368415856488879 c 13.829459263742985,-0.0 39.12410665226234,3.9375 33.12410665226234,-16.39321135266445&#10;c -5.142857142857142,-6.338552378101597 0,-7.515054609413813 9.733036204880513,-7.515054609413813&#10;c 6.887462733448579,0 12.030319876305722,7.66111548169982 6.887462733448579,8.324259235057854&#10;c -5.142857142857142,10.2375 17.999999999999996,6.3 35.969680123694275,15.58400672702041 c 5.197067576522063,-0.0 35.143256370629274,3.9375 29.143256370629278,-11.033234268099546&#10;c -5.142857142857142,-10.423703381662706 0,-12.519728752181758 13.713886486513577,-12.519728752181758&#10;c 7.224778432536411,0 12.367635575393553,13.721087852844038 7.224778432536411,17.791825223128406&#10;c -5.142857142857142,10.2375 17.999999999999996,6.3 35.63236442460644,5.761137797152898 c 14.413541537184068,0.0 37.78225699512082,-3.9375 31.782256995120814,1.3914128547050422&#10;c -5.142857142857142,4.739941827526149 0,20.601739832517957 11.07488586202204,20.601739832517957&#10;c 12.212500196751883,0 17.355357339609025,-8.275129775814992 12.212500196751883,-8.945374922747947&#10;c -5.142857142857142,-10.2375 17.999999999999996,-6.3 30.64464266039097,-13.047777764475052 c 8.77225818951941,0.0 39.189978580867916,-3.9375 33.189978580867916,0.8864736317541332&#10;c -5.142857142857142,6.654059072242097 0,19.824329858752233 9.667164276274939,19.824329858752233&#10;c 8.42158821243357,0 13.564445355290712,-6.782421371747851 8.42158821243357,-8.62266202915147&#10;c -5.142857142857142,-10.2375 17.999999999999996,-6.3 34.435554644709285,-12.088141461354894 c 7.6738173973793415,-0.0 38.36378765544433,3.9375 32.36378765544433,-9.73575200403058&#10;c -5.142857142857142,-13.587753947993399 0,-16.959647050804232 10.493355201698527,-16.959647050804232&#10;c 6.139622948741234,0 11.282480091598377,4.077619570588765 6.139622948741234,10.187866666185744&#10;c -5.142857142857142,10.2375 17.999999999999996,6.3 36.71751990840162,16.507532388649068 c 13.943495083933383,-0.0 40.01964685194252,3.9375 34.01964685194252,-0.7264783401363877&#10;c -5.142857142857142,-9.662300007907072 0,-18.215474187105304 8.837496005200336,-18.215474187105304&#10;c 8.992435061788349,0 14.135292204645491,3.8042026137535125 8.992435061788349,10.785913587458325&#10;c -5.142857142857142,10.2375 17.999999999999996,6.3 33.864707795354505,8.156038939783368 c 18.150682016792597,0.0 38.16766911918597,-3.9375 32.16766911918597,4.35053143882757&#10;c -5.142857142857142,16.133463253164265 0,20.13157366913954 10.689473737956881,20.13157366913954&#10;c 9.147205318036093,0 14.290062460893235,-17.805809331764934 9.147205318036093,-22.794151319205533&#10;c -5.142857142857142,-10.2375 17.999999999999996,-6.3 33.70993753910676,-1.687953788761579 c 21.957028945059854,-0.0 35.97986951826071,3.9375 29.979869518260713,-10.823934851264397&#10;c -5.142857142857142,-4.303176386900693 0,-12.477825864471868 12.87727333888214,-12.477825864471868&#10;c 7.923734820034042,0 13.066591962891184,9.784697312086418 7.923734820034042,16.37298147568203&#10;c -5.142857142857142,10.2375 17.999999999999996,6.3 34.93340803710881,6.928779240054233 c 6.321767535805139,-0.0 36.087228679432386,3.9375 30.087228679432382,1.4334670885541476&#10;c -5.142857142857142,-10.597630960596756 0,-23.54800728053509 12.769914177710472,-23.54800728053509&#10;c 11.877235254425997,0 17.02009239728314,5.865847940335227 11.877235254425997,8.730619336405027&#10;c -5.142857142857142,10.2375 17.999999999999996,6.3 30.979907602716857,13.383920855575912 c 22.24965550870331,-0.0 39.48913071390448,3.9375 33.48913071390448,0.7979013650769181&#10;c -5.142857142857142,-17.090689123130502 0,-21.758455073129632 9.368012143238374,-21.758455073129632&#10;c 9.304234585220755,0 14.447091728077897,12.986621489518624 9.304234585220755,17.631143173904647&#10;c -5.142857142857142,10.2375 17.999999999999996,6.3 33.5529082719221,3.3294105341480673 c 7.007234333217008,-0.0 35.77122948519168,3.9375 29.771229485191682,-7.709737834186382&#10;c -5.142857142857142,-12.3297589845531 0,-14.425947108779976 13.085913371951172,-14.425947108779976&#10;c 13.136002254268647,0 18.27885939712579,2.878560234870709 13.136002254268647,11.86717294149955&#10;c -5.142857142857142,10.2375 17.999999999999996,6.3 29.721140602874208,10.268512001466807 L 1200 0 " fill="none" stroke="black" stroke-width="1.0" style="vector-effect:non-scaling-stroke;" /></g><g><path d="M 0 0  L 0 551.250000  c 15.437767075089567,-0.0 42.51026129908803,3.9375 36.51026129908803,-15.894564028677893&#10;c -5.142857142857142,-3.5197083623922705 0,-5.645304736389212 6.346881558054825,-5.645304736389212&#10;c 6.0964592033721985,0 11.23931634622934,12.214591423982403 6.0964592033721985,17.290214006253397&#10;c -5.142857142857142,10.2375 17.999999999999996,6.3 36.760683653770656,4.249654758813708 c 9.078326060287408,-0.0 39.77815632470181,3.9375 33.77815632470181,0.3357426825304692&#10;c -5.142857142857142,-17.392724241176555 0,-19.43545452559202 9.078986532441043,-19.43545452559202&#10;c 8.698701048417227,0 13.84155819127437,9.623020122608755 8.698701048417227,14.298773669839461&#10;c -5.142857142857142,10.2375 17.999999999999996,6.3 34.15844180872563,4.800938173222091 c 12.936962155006443,0.0 40.25759687502043,-3.9375 34.25759687502043,6.5073439029451805&#10;c -5.142857142857142,10.325336704387736 0,13.570775584489088 8.599545982122422,13.570775584489088&#10;c 6.436893273458722,0 11.579750416315864,-5.355498766575436 6.436893273458722,-16.01924798668663&#10;c -5.142857142857142,-10.2375 17.999999999999996,-6.3 36.42024958368413,-4.058871500747639 c 15.152266105394267,-0.0 39.223102819976205,3.9375 33.223102819976205,-5.3233065767173775&#10;c -5.142857142857142,-5.305191843915982 0,-14.439723935607372 9.634040037166649,-14.439723935607372&#10;c 8.089009189175464,0 13.231866332032606,6.166296120236304 8.089009189175464,15.612035290837193&#10;c -5.142857142857142,10.2375 17.999999999999996,6.3 34.76813366796739,4.150995221487557 c 15.248840248797316,-0.0 38.067606111440554,3.9375 32.067606111440554,-4.496445673633971&#10;c -5.142857142857142,-8.709308217052852 0,-22.193805977436895 10.7895367457023,-22.193805977436895&#10;c 6.435171384574815,0 11.578028527431957,3.4685399211323165 6.435171384574815,12.773460389839432&#10;c -5.142857142857142,10.2375 17.999999999999996,6.3 36.42197147256804,13.916791261231435 c 16.314496550224437,0.0 35.77815742126239,-3.9375 29.778157421262396,5.436173928337375&#10;c -5.142857142857142,13.415709651270255 0,20.015417523981718 13.078985435880458,20.015417523981718&#10;c 9.788951419382002,0 14.931808562239144,-13.14601430553082 9.788951419382002,-22.966429338181538&#10;c -5.142857142857142,-10.2375 17.999999999999996,-6.3 33.06819143776085,-2.4851621141375553 c 12.186515914180482,-0.0 40.70911806129577,3.9375 34.70911806129577,-12.32483866371325&#10;c -5.142857142857142,-8.930839332326984 0,-12.049536427163096 8.148024795847085,-12.049536427163096&#10;c 7.948790239641028,0 13.09164738249817,22.712749557853737 7.948790239641028,25.06212725665355&#10;c -5.142857142857142,10.2375 17.999999999999996,6.3 34.908352617501826,-0.687752165777205 c 5.10172246537316,-0.0 40.09841345823358,3.9375 34.09841345823358,-4.133328201413193&#10;c -5.142857142857142,-12.001889537802333 0,-21.25883667076797 8.758729398909274,-21.25883667076797&#10;c 7.335413870434465,0 12.478271013291607,9.35653321390783 7.335413870434465,12.66014859545834&#10;c -5.142857142857142,10.2375 17.999999999999996,6.3 35.52172898670839,12.732016276722822 c 12.534839142575937,-0.0 42.64574805270483,3.9375 36.64574805270483,-3.9521045852823917&#10;c -5.142857142857142,-7.724985568450879 0,-16.646788344483095 6.211394804438022,-16.646788344483095&#10;c 7.305514154461193,0 12.448371297318335,5.1394791648390035 7.305514154461193,11.832264556257497&#10;c -5.142857142857142,10.2375 17.999999999999996,6.3 35.55162870268166,8.76662837350799 c 14.263760483164093,-0.0 39.00781882977381,3.9375 33.00781882977381,-17.131847297517524&#10;c -5.142857142857142,-2.7634365305651984 0,-2.800597552514475 9.849324027369043,-2.800597552514475&#10;c 11.49827493489969,0 16.641132077756833,6.687122072662089 11.49827493489969,8.721510923383537&#10;c -5.142857142857142,10.2375 17.999999999999996,6.3 31.358867922243164,11.210933926648462 c 8.033559041402256,-0.0 36.61699432688417,3.9375 30.616994326884168,-7.784002351755802&#10;c -5.142857142857142,-12.265233523702259 0,-14.687125067736638 12.240148530258686,-14.687125067736638&#10;c 12.268327282662469,0 17.41118442551961,14.438174365265276 12.268327282662469,16.68021852300584&#10;c -5.142857142857142,10.2375 17.999999999999996,6.3 30.588815574480385,5.790908896486599 c 19.49616359053157,-0.0 37.81684862419449,3.9375 31.816848624194495,-4.830525912827319&#10;c -5.142857142857142,-14.645764687943856 0,-20.93306118061741 11.040294232948359,-20.93306118061741&#10;c 6.297209589184625,0 11.440066732041767,15.449388872460888 6.297209589184625,19.215850916579114&#10;c -5.142857142857142,10.2375 17.999999999999996,6.3 36.55993326795823,6.547736176865616 c 17.25044449445376,0.0 35.733508214424404,-3.9375 29.733508214424404,0.28781940891371227&#10;c -5.142857142857142,12.263360516192733 0,19.110778351957904 13.12363464271845,19.110778351957904&#10;c 12.76816988607785,0 17.911027028934992,-7.408255255427819 12.76816988607785,-11.210631558829446&#10;c -5.142857142857142,-10.2375 17.999999999999996,-6.3 30.088972971065004,-8.18796620204217 c 6.20442405807826,-0.0 39.75987781073148,3.9375 33.75987781073148,-16.80748379958553&#10;c -5.142857142857142,-1.9472921687003777 0,-4.274477197858115 9.097265046411373,-4.274477197858115&#10;c 6.5726283777030545,0 11.715485520560197,4.364694270247727 6.5726283777030545,6.757590548904261&#10;c -5.142857142857142,10.2375 17.999999999999996,6.3 36.2845144794398,14.324370448539383 L 1200 0 " fill="none" stroke="black" stroke-width="1.0" style="vector-effect:non-scaling-stroke;" /></g></g></svg>